<?xml version="1.0" encoding="utf-8"?>
<!-- Generator: Adobe Illustrator 14.0.0, SVG Export Plug-In . SVG Version: 6.00 Build 43363)  -->
<!DOCTYPE svg PUBLIC "-//W3C//DTD SVG 1.1//EN" "http://www.w3.org/Graphics/SVG/1.1/DTD/svg11.dtd">
<svg version="1.1" id="Layer_1" xmlns="http://www.w3.org/2000/svg" xmlns:xlink="http://www.w3.org/1999/xlink" x="0px" y="0px"
	 width="1024px" height="1024px" viewBox="0 0 1024 1024" enable-background="new 0 0 1024 1024" xml:space="preserve">
<g>
	<polygon points="291.368,556.225 291.368,512.757 180.449,512.757 180.449,556.225 208.927,556.225 156.465,721.1 155.716,721.1 
		104.754,556.225 134.357,556.225 134.357,512.757 11.822,512.757 11.822,556.225 29.81,556.225 111.498,781.059 189.817,781.059 
		274.129,556.225 	"/>
	<path d="M448.783,602.125c-7.871-9.861-17.988-17.547-30.355-23.041c-12.365-5.492-27.295-8.244-44.778-8.244
		c-16.243,0-30.728,2.623-43.469,7.869c-12.741,5.242-23.549,12.551-32.414,21.918c-8.869,9.369-15.68,20.678-20.421,33.914
		c-4.749,13.244-7.121,27.73-7.121,43.467c0,15.992,1.933,30.672,5.809,44.033c3.869,13.365,10.053,24.859,18.548,34.473
		c8.489,9.621,19.357,17.113,32.602,22.484c13.237,5.367,29.228,8.055,47.964,8.055c10.99,0,21.67-1.064,32.04-3.182
		c10.362-2.125,19.795-5.625,28.292-10.494c8.489-4.873,15.737-11.363,21.734-19.488c5.995-8.113,10.117-18.172,12.365-30.164
		h-65.201c0,1.752-0.44,3.877-1.311,6.371c-0.88,2.498-2.437,4.938-4.685,7.309c-2.25,2.377-5.247,4.375-8.994,5.996
		c-3.747,1.627-8.496,2.434-14.24,2.434c-7.746,0-13.93-1.559-18.549-4.682c-4.624-3.123-8.186-7.121-10.678-11.992
		c-2.5-4.873-4.124-10.305-4.873-16.303c-0.75-5.992-1.124-11.738-1.124-17.238h131.154c0.246-1.996,0.432-3.934,0.563-5.805
		c0.123-1.877,0.186-4.182,0.186-6.934c0-16.486-1.874-31.6-5.622-45.344C462.458,623.803,456.65,612,448.783,602.125z
		 M339.924,659.648c0-2.25,0.246-5.934,0.75-11.055c0.498-5.119,1.743-10.43,3.746-15.924c1.997-5.492,5.183-10.305,9.557-14.43
		c4.367-4.123,10.549-6.184,18.548-6.184c6.991,0,12.49,1.816,16.489,5.436c3.994,3.623,6.99,7.998,8.992,13.115
		c1.997,5.123,3.187,10.369,3.56,15.736c0.376,5.375,0.563,9.809,0.563,13.305H339.924z"/>
	<path d="M623.591,598.943h-0.749c-4.748-10.492-11.429-17.799-20.047-21.92c-8.62-4.123-18.428-6.184-29.417-6.184
		c-14.989,0-27.919,2.807-38.785,8.428c-10.867,5.625-19.923,13.117-27.167,22.484c-7.25,9.369-12.618,20.299-16.114,32.789
		c-3.5,12.494-5.247,25.48-5.247,38.971c0,17.238,1.997,32.789,5.996,46.654c3.994,13.865,10.241,25.799,18.737,35.785
		c8.49,9.994,19.17,17.676,32.039,23.047c12.863,5.367,28.291,8.055,46.276,8.055c26.479,0,47.153-5.994,62.02-17.984
		c14.859-11.992,23.419-31.229,25.669-57.709h-57.709c-0.251,2.25-0.69,5.311-1.312,9.184c-0.626,3.873-1.938,7.68-3.935,11.43
		c-2.002,3.744-4.813,6.992-8.431,9.74c-3.626,2.752-8.562,4.121-14.802,4.121c-6.5,0-11.869-1.873-16.113-5.619
		c-4.252-3.746-7.561-8.621-9.93-14.613c-2.379-6-4.064-12.744-5.061-20.236c-1-7.496-1.498-14.988-1.498-22.484
		s0.187-15.297,0.562-23.42c0.376-8.115,1.621-15.488,3.749-22.107c2.119-6.617,5.305-12.115,9.555-16.49
		c4.244-4.369,10.362-6.557,18.36-6.557c5.997,0,10.866,1.254,14.616,3.746c3.745,2.5,6.68,5.686,8.806,9.555
		c2.118,3.877,3.559,8.123,4.308,12.744c0.749,4.623,1.125,9.178,1.125,13.678h57.709v-77.195h-53.212V598.943z"/>
	<path d="M801.586,724.102c0,2.5-0.065,5.059-0.188,7.682c-0.128,2.623-0.501,4.938-1.123,6.934c-0.626,2-1.687,3.689-3.185,5.057
		c-1.499,1.375-3.502,2.061-5.997,2.061c-4.999,0-8.121-1.873-9.367-5.619c-1.254-3.746-1.874-8.865-1.874-15.365V618.053h46.094
		v-41.219h-46.094v-53.961l-69.698,24.357v29.604h-23.234v41.219h23.234v99.678c0,10.492,0.937,19.99,2.81,28.479
		c1.874,8.498,5.247,15.805,10.118,21.924c4.872,6.121,11.674,10.805,20.422,14.051c8.741,3.242,20.105,4.869,34.101,4.869
		c18.736,0,33.783-4.371,45.155-13.113c11.365-8.74,17.05-23.107,17.05-43.092v-22.484h-38.223V724.102z"/>
	<path d="M994.188,570.84c-6.996,0-13.369,1.254-19.105,3.744c-5.752,2.502-10.814,5.873-15.177,10.119
		c-4.378,4.25-8.002,9.244-10.872,14.988c-2.875,5.748-5.062,11.865-6.556,18.361h-0.746v-41.219h-86.188v41.219h20.979v121.785
		h-20.979v41.221h116.91v-41.221h-26.232V694.5c0-9.494,1.254-17.99,3.753-25.482c2.49-7.496,5.93-13.869,10.299-19.113
		c4.373-5.242,9.435-9.236,15.179-11.988c5.744-2.748,11.995-4.121,18.735-4.121c4.243,0,7.746,0.373,10.495,1.119
		c2.746,0.752,5.245,1.754,7.495,3.002v-64.08C1009.679,571.84,1003.677,570.84,994.188,570.84z"/>
	<path d="M593.498,277.853h100.104c3.509,8.462,11.846,14.415,21.576,14.415c12.896,0,23.354-10.456,23.354-23.354
		c0-12.897-10.455-23.353-23.352-23.353c-9.731,0-18.069,5.953-21.578,14.415H543.968v-23.03l-63.936,0v23.029H330.398
		c-3.509-8.461-11.846-14.415-21.577-14.415c-12.898,0-23.354,10.455-23.354,23.353c0,12.898,10.456,23.354,23.353,23.354
		c9.731,0,18.069-5.953,21.578-14.415h100.104c-54.323,29.169-91.347,86.533-91.347,152.389h29.794
		c0-67.893,47.542-124.887,111.083-139.447v10.087h63.936v-10.087c63.54,14.561,111.084,71.554,111.084,139.447h29.795
		C684.847,364.387,647.821,307.022,593.498,277.853z"/>
</g>
</svg>
